<?xml version="1.0" encoding="utf-8"?>
<!-- Generator: Adobe Illustrator 23.0.5, SVG Export Plug-In . SVG Version: 6.00 Build 0)  -->
<svg version="1.1" id="Layer_1" xmlns="http://www.w3.org/2000/svg" x="0px" y="0px"
     viewBox="0 0 560 560" style="enable-background:new 0 0 560 560;" xml:space="preserve">
<style type="text/css">
	.st0{fill:#1890FF;}
</style>
    <title>Abstract user icon</title>
    <path class="st0" d="M280,560c-74.8,0-145.1-29.1-198-82C29.1,425.1,0,354.8,0,280c0-74.8,29.1-145.1,82-198
	C134.9,29.1,205.2,0,280,0c74.8,0,145.1,29.1,198,82c52.9,52.9,82,123.2,82,198c0,74.8-29.1,145.1-82,198
	C425.1,530.9,354.8,560,280,560z M280,30C142.1,30,30,142.1,30,280s112.1,250,250,250s250-112.1,250-250S417.9,30,280,30z"/>
    <path class="st0" d="M280,340c-71.7,0-130-58.3-130-130c0-71.7,58.3-130,130-130c71.7,0,130,58.3,130,130
	C410,281.7,351.7,340,280,340z M280,110c-55.1,0-100,44.9-100,100s44.9,100,100,100c55.1,0,100-44.9,100-100S335.1,110,280,110z"/>
    <path class="st0" d="M459,466.4c-19.2-54.2-61.3-96.2-115.5-115.5c-47.8-17-99.4-14.3-145.2,7.5c-45.8,21.8-80.4,60.2-97.4,108
	l-28.3-10c19.7-55.4,59.7-99.8,112.8-125s112.8-28.3,168.2-8.7c62.7,22.3,111.4,71,133.7,133.7L459,466.4z"/>
</svg>
