<?xml version="1.0" encoding="utf-8"?>
<!-- Generator: Adobe Illustrator 23.0.5, SVG Export Plug-In . SVG Version: 6.00 Build 0)  -->
<svg version="1.1" id="Layer_1" xmlns="http://www.w3.org/2000/svg" x="0px" y="0px"
     viewBox="0 0 1031.1 147.5" style="enable-background:new 0 0 1031.1 147.5;" xml:space="preserve">
<style type="text/css">
	.st0{fill:#74BF44;}
</style>
    <g>
	<path d="M986.8,42.5c-12.8,0-24.2,4-33,18c-5.6-13.6-17.4-18.4-29.2-18.4c-9.4,0-20.8,3.6-26,13.6l0.2-12h-24.6v26.1
		c-7.9-16.5-24.4-27.9-46.4-27.9c-22.2,0-38.5,11.6-46.2,28.4c-7.8-16.8-24.4-28.4-46.6-28.4c-31.4,0-51,23.2-51,51.4
		c0,9,1.9,17.4,5.6,24.8h-67.8V2.5h-26.4v73.4c-5.6-23.3-23.4-35-48.4-35c-27.6,0-46.5,16.1-51.2,39.7
		c-2.5-24.2-16.2-38.1-41.4-38.1c-12.8,0-24.2,4-33,18c-5.6-13.6-17.4-18.4-29.2-18.4c-9.4,0-20.8,3.6-26,13.6l0.2-12h-23.8v-41
		h-24.4v54.6c-5.8-10.2-22-15.8-32.4-15.8c-22.3,0-40.1,10.5-47.1,31.1C233,53,217.6,42.3,199.5,42.3c-12.4,0-22.4,3-32.4,12.8V43.7
		h-23.4V110L95.5,2.5H66.7l-62.8,140h28.6l12-26.4h73.2l11.8,26.4h14.2h14.6h9.6V90.1c0-15,10.2-25.6,25.2-25.6
		c15.6,0,23.8,11.4,23.8,26.4v51.6h24.4v-23.8c8.3,16.6,25,26,45.2,26c12,0,24.2-4,31.8-15.8v13.6h23.6h0.8h23.6V89.7
		c0-13,7.8-24.8,21-24.8c13.4,0,20.2,11.8,20.2,24.8v52.8h24.4V89.7c0-13,8.2-24.4,21.4-24.4c13.2,0,18.6,11,18.6,24v53.2h24.4
		v-35.4c5.4,23.3,24.2,38,52.6,38c15,0,32-5.2,42.4-16l-15.6-15.4c-5.6,5.8-17.4,9.2-26.4,9.2c-17.2,0-27.8-8.8-29.4-21h75.6v40.6
		h98.4v-17.4c8.7,12,22.9,19.6,41.4,19.6c22.5,0,38.8-11.4,46.5-28.1c7.6,16.7,23.8,28.1,46.3,28.1c22.3,0,38.4-11.1,46.2-27.5v25.3
		h24.4V89.7c0-13,7.8-24.8,21-24.8c13.4,0,20.2,11.8,20.2,24.8v52.8h24.4V89.7c0-13,8.2-24.4,21.4-24.4c13.2,0,18.6,11,18.6,24v53.2
		h24.4V89.3C1028.6,59.7,1014.8,42.5,986.8,42.5z M55.1,91.5l26-59.6l26,59.6H55.1z M288.1,122.1c-15.6,0-28-11.8-28-29
		c0-17.8,12.4-28.8,28-28.8c15.4,0,28.6,11.6,28.6,28.8C316.7,110.9,303.5,122.1,288.1,122.1z M520.3,81.7
		c3.6-12.8,14.4-19.2,27.6-19.2c14,0,24,6.4,25.6,19.2H520.3z M735.3,122.3c-17.8,0-26.8-14-26.8-29c0-14.8,9.2-29.2,26.8-29.2
		c16.4,0,26.8,14.4,26.8,29.2C762.1,108.3,753.1,122.3,735.3,122.3z M828.1,122.3c-17.8,0-26.8-14-26.8-29
		c0-14.8,9.2-29.2,26.8-29.2c16.4,0,26.8,14.4,26.8,29.2C854.9,108.3,845.9,122.3,828.1,122.3z"/>
        <path class="st0" d="M548.9,147.6c-23.2,0-41-9.7-50.1-26.7V145h-29.4V89.3c0-6.5-1.6-21.5-16.1-21.5c-12.4,0-18.9,11-18.9,21.9
		V145H405V89.7c0-11.1-5.5-22.3-17.7-22.3c-12.1,0-18.5,11.2-18.5,22.3V145h-53v-8.9c-8.8,9.1-20.5,11.1-29.3,11.1
		c-18.1,0-33.2-7.1-42.7-19.7V145h-29.4V90.9c0-11.6-5.6-23.9-21.3-23.9c-13.6,0-22.7,9.3-22.7,23.1V145h-42.5L116,118.6h-70
		l-12,26.4H0L65,0h32l44.1,98.3V41.2h28.4v8.3c8.5-6.8,17.7-9.7,29.9-9.7c17.7,0,32.3,9.7,39.5,25.9c8.3-17,25.1-26.7,46.9-26.7
		c8.2,0,21.6,3.6,29.9,11.3V0.2h29.4v41H369l-0.1,6.8c8-7.7,19.5-8.4,23.4-8.4c13.4,0,23.7,5.6,29.6,15.9
		c8-10.6,18.4-15.5,32.6-15.5c22.3,0,36.6,10.3,41.9,29.9c8-19.7,26.6-31.5,50.7-31.5c21.6,0,37.5,8.3,45.9,23.8V0h31.4v115.6h61.4
		c-2.8-6.8-4.2-14.5-4.2-22.3c0-31.2,22.5-53.9,53.5-53.9c20.2,0,37.2,9.4,46.6,25.5c9.2-16.1,26.1-25.5,46.2-25.5
		c18.3,0,34.1,7.8,43.9,21.3V41.2h29.6l-0.1,6.8c8-7.7,19.5-8.4,23.4-8.4c13.4,0,23.7,5.6,29.6,15.9c8-10.6,18.4-15.5,32.6-15.5
		c28.6,0,44.3,17.5,44.3,49.3V145h-29.4V89.3c0-6.5-1.6-21.5-16.1-21.5c-12.4,0-18.9,11-18.9,21.9V145h-29.4V89.7
		c0-11.1-5.5-22.3-17.7-22.3c-12.1,0-18.5,11.2-18.5,22.3V145h-29.4v-18.7c-9.6,13.4-25.1,20.9-43.7,20.9
		c-20.5,0-37.1-9.1-46.3-25.1c-9.3,16-25.9,25.1-46.5,25.1c-15.7,0-29.2-5.4-38.9-15.3V145H593v-14.1
		C583,141.2,566.1,147.6,548.9,147.6z M495.7,93.7l2.9,12.8c5.3,22.9,23.6,36.1,50.2,36.1c15,0,29.6-5.1,38.8-13.5l-12.1-11.9
		c-6.7,5.4-17.9,8.3-26.3,8.3c-17.5,0-30-9.1-31.9-23.2l-0.4-2.8H598V140h93.4v-19.4h-72V5H598v92L593,76.4c-5.1-21.3-21.4-33-46-33
		c-25.5,0-44.2,14.4-48.8,37.7L495.7,93.7z M781.7,110.6l2.3,5c7.7,16.9,23.8,26.6,44,26.6c20,0,36.1-9.5,43.9-26.1l4.8-10V140h19.4
		V89.7c0-13.6,8.1-27.3,23.5-27.3c13.4,0,22.7,11.2,22.7,27.3V140h19.4V89.7c0-15.3,10.3-26.9,23.9-26.9c13.2,0,21.1,9.9,21.1,26.5
		V140h19.4V89.3c0-20.2-6.8-44.3-39.3-44.3c-14,0-23.6,5.2-30.9,16.8l-2.6,4.1l-1.8-4.5c-6-14.7-19.4-16.9-26.9-16.9
		c-8.4,0-19.1,3.2-23.8,12.3l-4.9,9.4l0.3-20.1h-19.6v34.6l-4.8-9.9c-7.9-16.6-24.4-26.5-44.1-26.5c-20.1,0-36.1,9.8-43.9,27
		l-2.3,4.9l-2.3-4.9c-7.9-16.9-24.4-27-44.4-27c-28.6,0-48.5,20.1-48.5,48.9c0,8.5,1.8,16.7,5.3,23.7l1.7,3.5l2.3,3.1
		c8.7,12,22.7,18.6,39.4,18.6c20.3,0,36.4-9.7,44.2-26.6L781.7,110.6z M238.8,108.1l4.7,9.5c7.8,15.6,23.4,24.6,43,24.6
		c9.2,0,21.9-2.5,29.7-14.7l4.6-7.1V140h43V89.7c0-13.6,8.1-27.3,23.5-27.3c13.4,0,22.7,11.2,22.7,27.3V140h19.4V89.7
		c0-15.3,10.3-26.9,23.9-26.9c13.2,0,21.1,9.9,21.1,26.5V140h19.4V85.1l0,0.1l-0.5-4.4C490.8,57.1,477.8,45,454.5,45
		c-14,0-23.6,5.2-30.9,16.8l-2.6,4.1l-1.8-4.5c-6-14.7-19.4-16.9-26.9-16.9c-8.4,0-19.1,3.2-23.8,12.3l-4.9,9.4l0.3-20.1h-23.8v-41
		h-19.4v61.6l-4.7-8.2c-5.4-9.5-21-14.5-30.2-14.5c-22.1,0-38.4,10.7-44.7,29.4l-2.5,7.5l-2.2-7.6c-5.3-17.8-19.1-28.5-36.9-28.5
		c-13,0-21.9,3.5-30.6,12.1l-4.3,4.2V46.2h-18.4v75.4L93.8,5H68.3L7.7,140h23.1l12-26.4h76.4l11.8,26.4h34.3V90.1
		c0-16.5,11.4-28.1,27.7-28.1c16,0,26.3,11.3,26.3,28.9V140h19.4V108.1z M575.6,110.1l17.3,17.1v-22.9h-70.1
		c2.7,9.9,12.5,16,26.4,16c8,0,19.3-3,24.6-8.4L575.6,110.1z M828.1,124.8c-20.1,0-29.3-16.3-29.3-31.5c0-15.8,10.1-31.7,29.3-31.7
		c18.3,0,29.3,16.1,29.3,31.7C857.4,108.5,848.2,124.8,828.1,124.8z M828.1,66.6c-16.7,0-24.3,13.8-24.3,26.7
		c0,13.2,7.5,26.5,24.3,26.5c16.8,0,24.3-13.3,24.3-26.5C852.4,80.2,843.3,66.6,828.1,66.6z M735.3,124.8
		c-20.1,0-29.3-16.3-29.3-31.5c0-15.8,10.1-31.7,29.3-31.7c18.3,0,29.3,16.1,29.3,31.7C764.6,108.5,755.4,124.8,735.3,124.8z
		 M735.3,66.6c-16.7,0-24.3,13.8-24.3,26.7c0,13.2,7.5,26.5,24.3,26.5c16.8,0,24.3-13.3,24.3-26.5C759.6,80.2,750.5,66.6,735.3,66.6
		z M288.1,124.6c-17.4,0-30.5-13.5-30.5-31.5c0-18.4,12.5-31.3,30.5-31.3c17.7,0,31.1,13.5,31.1,31.3
		C319.2,111.4,306.1,124.6,288.1,124.6z M288.1,66.8c-15,0-25.5,10.8-25.5,26.3c0,15.4,10.7,26.5,25.5,26.5c13,0,26.1-9.1,26.1-26.5
		C314.2,78.1,302.9,66.8,288.1,66.8z M110.9,94H51.2l29.8-68.4L110.9,94z M58.9,89h44.4L81.1,38.2L58.9,89z M576.3,84.2H517l0.9-3.2
		c3.7-13.2,14.9-21,30-21c15.9,0,26.4,8,28.1,21.4L576.3,84.2z M523.8,79.2h46.7C567.4,66.9,555.2,65,547.9,65
		C536.2,65,527.6,70.1,523.8,79.2z"/>
</g>
</svg>
