<?xml version="1.0" encoding="utf-8"?>
<!-- Generator: Adobe Illustrator 23.0.5, SVG Export Plug-In . SVG Version: 6.00 Build 0)  -->
<svg version="1.1" id="Layer_1" xmlns="http://www.w3.org/2000/svg" x="0px" y="0px"
     viewBox="0 0 512 512" style="enable-background:new 0 0 512 512;" xml:space="preserve">
<style type="text/css">
	.st0{fill:#CCCCCC;}
</style>
    <g>
	<g>
		
			<rect x="258.8" y="278.4" transform="matrix(0.7071 -0.7071 0.7071 0.7071 -167.0963 308.9412)" class="st0"
                  width="61.1" height="155.5"/>
	</g>
</g>
    <g>
	<g>
		<polygon class="st0" points="389.6,413.2 346.4,456.3 402,512 488.4,512 		"/>
	</g>
</g>
    <g>
	<g>
		
			<rect x="78.1" y="258.9" transform="matrix(0.7071 -0.7071 0.7071 0.7071 -158.993 194.9429)" class="st0"
                  width="155.5" height="61.1"/>
	</g>
</g>
    <g>
	<g>
		
			<rect x="192.1" y="78.1" transform="matrix(0.7071 -0.7071 0.7071 0.7071 -44.9827 203.0466)" class="st0"
                  width="61.1" height="155.5"/>
	</g>
</g>
    <g>
	<g>
		<polygon class="st0" points="413.2,122.4 456.3,165.6 512,110 512,23.6 		"/>
	</g>
</g>
    <g>
	<g>
		<polygon class="st0" points="189.2,346.4 23.6,512 110,512 232.4,389.6 		"/>
	</g>
</g>
    <g>
	<g>
		<polygon class="st0" points="110,0 23.6,0 122.4,98.8 165.6,55.7 		"/>
	</g>
</g>
    <g>
	<g>
		<polygon class="st0" points="402,0 279.6,122.4 322.8,165.6 488.4,0 		"/>
	</g>
</g>
    <g>
	<g>
		<polygon class="st0" points="157.2,0 256,98.8 354.8,0 		"/>
	</g>
</g>
    <g>
	<g>
		<polygon class="st0" points="256,413.2 157.2,512 354.8,512 		"/>
	</g>
</g>
    <g>
	<g>
		
			<rect x="278.4" y="192.1" transform="matrix(0.7071 -0.7071 0.7071 0.7071 -53.084 317.0473)" class="st0"
                  width="155.5" height="61.1"/>
	</g>
</g>
    <g>
	<g>
		<polygon class="st0" points="413.2,256 512,354.8 512,157.2 		"/>
	</g>
</g>
    <g>
	<g>
		<polygon class="st0" points="389.6,279.6 346.4,322.8 512,488.4 512,402 		"/>
	</g>
</g>
    <g>
	<g>
		<polygon class="st0" points="0,23.6 0,110 122.4,232.4 165.6,189.2 		"/>
	</g>
</g>
    <g>
	<g>
		<polygon class="st0" points="55.7,346.4 0,402 0,488.4 98.8,389.6 		"/>
	</g>
</g>
    <g>
	<g>
		<polygon class="st0" points="0,157.2 0,354.8 98.8,256 		"/>
	</g>
</g>
</svg>
