<?xml version="1.0" encoding="utf-8"?>
<!-- Generator: Adobe Illustrator 23.0.5, SVG Export Plug-In . SVG Version: 6.00 Build 0)  -->
<svg version="1.1" id="Layer_1" xmlns="http://www.w3.org/2000/svg" x="0px" y="0px"
     viewBox="0 0 685.3 365.6" style="enable-background:new 0 0 685.3 365.6;" xml:space="preserve">
<style type="text/css">
	.st0{fill:none;}
	.st1{fill:none;stroke:#000000;stroke-width:2.4;}
	.st2{fill:url(#SVGID_1_);}
	.st3{fill:url(#SVGID_2_);}
	.st4{fill:url(#_x36__lpi_20_x25_);}
	.st5{fill:#FFFFFF;stroke:#000000;stroke-width:10;stroke-miterlimit:10;}
</style>
    <pattern x="-149.3" y="-308.7" width="72" height="72" id="_x36__lpi_20_x25_" viewBox="72.3 -72 72 72"
             style="overflow:visible;">
	<g>
		<rect x="72.3" y="-72" class="st0" width="72" height="72"/>
        <g>
			<line class="st1" x1="144" y1="-6" x2="216.5" y2="-6"/>
            <line class="st1" x1="144" y1="-30" x2="216.5" y2="-30"/>
            <line class="st1" x1="144" y1="-54" x2="216.5" y2="-54"/>
            <line class="st1" x1="144" y1="-18" x2="216.5" y2="-18"/>
            <line class="st1" x1="144" y1="-42" x2="216.5" y2="-42"/>
            <line class="st1" x1="144" y1="-66" x2="216.5" y2="-66"/>
		</g>
        <g>
			<line class="st1" x1="72" y1="-6" x2="144.5" y2="-6"/>
            <line class="st1" x1="72" y1="-30" x2="144.5" y2="-30"/>
            <line class="st1" x1="72" y1="-54" x2="144.5" y2="-54"/>
            <line class="st1" x1="72" y1="-18" x2="144.5" y2="-18"/>
            <line class="st1" x1="72" y1="-42" x2="144.5" y2="-42"/>
            <line class="st1" x1="72" y1="-66" x2="144.5" y2="-66"/>
		</g>
        <g>
			<line class="st1" x1="0" y1="-6" x2="72.5" y2="-6"/>
            <line class="st1" x1="0" y1="-30" x2="72.5" y2="-30"/>
            <line class="st1" x1="0" y1="-54" x2="72.5" y2="-54"/>
            <line class="st1" x1="0" y1="-18" x2="72.5" y2="-18"/>
            <line class="st1" x1="0" y1="-42" x2="72.5" y2="-42"/>
            <line class="st1" x1="0" y1="-66" x2="72.5" y2="-66"/>
		</g>
	</g>
</pattern>
    <g>
	<linearGradient id="SVGID_1_" gradientUnits="userSpaceOnUse" x1="318.7531" y1="390.0956" x2="61.9457" y2="133.2882">
		<stop offset="0" style="stop-color:#B886BC"/>
        <stop offset="0.2" style="stop-color:#C378B2"/>
        <stop offset="0.4" style="stop-color:#F3EC5A"/>
        <stop offset="0.6" style="stop-color:#83C55A"/>
        <stop offset="0.8" style="stop-color:#82CFCE"/>
        <stop offset="1" style="stop-color:#B886BC"/>
	</linearGradient>
        <path class="st2" d="M158.4,36.8L19.1,347.3h63.4l26.6-58.5h162.3l26.2,58.5h63.9L222.3,36.8H158.4z M132.7,234.2L190.3,102
		L248,234.2H132.7z"/>
        <linearGradient id="SVGID_2_" gradientUnits="userSpaceOnUse" x1="605.2548" y1="364.1492" x2="340.9073"
                        y2="99.8017">
		<stop offset="0" style="stop-color:#B886BC"/>
            <stop offset="0.2" style="stop-color:#C378B2"/>
            <stop offset="0.4" style="stop-color:#F3EC5A"/>
            <stop offset="0.6" style="stop-color:#83C55A"/>
            <stop offset="0.8" style="stop-color:#82CFCE"/>
            <stop offset="1" style="stop-color:#B886BC"/>
	</linearGradient>
        <polygon class="st3" points="462.4,293.2 462.4,36.8 403.9,36.8 403.9,347.3 622.1,347.3 622.1,293.2 	"/>
</g>
    <g>
	<path class="st4" d="M144.8,47.6L5.5,358.1H69l26.6-58.5h162.3l26.2,58.5h63.9L208.7,47.6H144.8z M119.1,245l57.7-132.2L234.4,245
		H119.1z"/>
        <polygon class="st4" points="448.8,304 448.8,47.6 390.3,47.6 390.3,358.1 608.5,358.1 608.5,304 	"/>
</g>
    <g>
	<path class="st5" d="M325.7,261.2H163.3l-26.6,58.5H73.3L212.6,9.3h63.9l139.3,310.5h-63.9L325.7,261.2z M244.5,74.5l-57.7,132.2
		h115.3L244.5,74.5z"/>
</g>
    <g>
	<path class="st5" d="M516.6,9.3v256.4h159.7v54.1H458.1V9.3H516.6z"/>
</g>
</svg>
