<?xml version="1.0" encoding="utf-8"?>
<!-- Generator: Adobe Illustrator 23.0.5, SVG Export Plug-In . SVG Version: 6.00 Build 0)  -->
<svg version="1.1" xmlns="http://www.w3.org/2000/svg" x="0px" y="0px"
	 viewBox="0 0 1000 1000" style="enable-background:new 0 0 1000 1000;" xml:space="preserve">
<style type="text/css">
	.st0{fill:#0B67B2;}
	.st1{fill:#FFFFFF;}
</style>
<g id="Layer_1">
	<path class="st0" d="M910,1000H90c-49.7,0-90-40.3-90-90V90C0,40.3,40.3,0,90,0h820c49.7,0,90,40.3,90,90v820
		C1000,959.7,959.7,1000,910,1000z"/>
</g>
<g id="Layer_2">
	<g>
		<g>
			<g>
				<path class="st1" d="M74.7,503.8c8.4-17,16.8-34.1,25.2-51.1c5.9-12,11.8-24,17.7-36c2.1-4.3,4.2-8.6,6.3-12.8
					c0.8-1.5,3.1-4.7,3.2-6.4c0-1.1-1.4,1.1-0.8,1c0.3,0,1.2-1,1.4-1.2c1.9-1.7,3.9-3.4,5.8-5.1c7.4-6.5,14.8-13,22.1-19.5
					c20.8-18.3,41.7-36.7,62.5-55c13.4-11.8,26.8-23.6,40.2-35.3c-1.8,0.7-3.5,1.5-5.3,2.2c19.4-2.2,38.8-4.3,58.2-6.5
					c30.8-3.4,61.6-6.8,92.3-10.3c7.2-0.8,14.4-1.6,21.5-2.4c-1.3-0.3-2.5-0.7-3.8-1c40.5,18.2,81,36.3,121.5,54.5
					c5.7,2.6,11.4,5.1,17.1,7.7c3.4,1.5,6.2,1.1,9.1-1.2c4.6-3.5,9.7-6.8,13.9-10.8c1.6-1.6-4.5,1.5-2.4,1.5c0.6,0,1.4-0.3,2-0.5
					c2.8-0.7,5.5-1.3,8.3-2c11.8-2.9,23.7-5.7,35.5-8.6c-1.9-0.3-3.9-0.5-5.8-0.8c10.6,6.9,21.2,13.8,31.9,20.7c3,2,6.5,0.9,9.1-1.2
					c10.6-8.5,21.2-17,31.9-25.5c-1.8,0.7-3.5,1.5-5.3,2.2c17-1.1,34-2.1,51-3.2c-1.3-0.3-2.5-0.7-3.8-1
					c13.8,9.6,27.6,19.1,41.4,28.7c-1.2-2.2-2.5-4.3-3.7-6.5c-0.4,11.1-0.8,22.2-1.2,33.3c-0.2,4.3-1.5,10.6,1.3,14.3
					c1.3,1.8,3.3,3.1,4.9,4.6c19.3,17.3,38.6,34.5,57.6,52.1c3.5,3.2,7,6.4,10.3,9.7c0.7,0.7,1.4,1.7,2.2,2.3
					c-0.5-0.3-2.8-7.9-1.5-2.7c0.1,0.4,0.3,0.8,0.4,1.2c1.6,4.9,4.2,9.8,6.4,14.5c3,6.7,6.1,13.3,9.2,20c2.6,5.6,5.2,11.2,7.8,16.8
					c0.7,1.5,1.3,3,2.1,4.4c0.9,1.8-0.4-2.8-0.2,0.3c0.2,5.6,1.7,11.3,2.6,16.8c1,6.4,2,12.8,3,19.2c0.7,4.3,1.8,7.3,6,9.4
					c5.5,2.8,11,5.5,16.6,8.3c10.8,5.4,21.7,10.8,32.5,16.3c-0.9-3.4-1.8-6.8-2.7-10.3c-12.8,25.1-25.5,50.2-38.3,75.3
					c-2.7,5.2-5.3,10.5-8,15.7c-0.4,0.8-1.4,2-1.5,2.9c0.2-1.6,4.5-3.5,0.8-1.7c-13.4,6.4-26.8,12.9-40.2,19.3
					c-12.5,6-25.1,12-37.6,18c1.3-0.3,2.5-0.7,3.8-1c-28.8,2.3-57.6,4.6-86.4,7c-4.1,0.3-8.3,0.7-12.4,1c-5.1,0.4-10.1,6.3-6.5,11.3
					c6.9,9.6,13.8,19.1,20.7,28.7c1.5-3.7,3-7.3,4.5-11c-25.5,6.4-51,12.7-76.5,19.1c1.3,0,2.7,0,4,0c-25-5.3-49.9-10.6-74.9-15.9
					c-14.6-3.1-29.2-6.2-43.7-9.3c-5.6-1.2-10.3-2.2-15.9-1.4c-26.9,3.8-53.8,7.6-80.8,11.3c-29.8,4.2-59.6,8.4-89.5,12.6
					c-2.6,0.4-5.2,0.7-7.8,1.1c-1.5,0.2,3.2-0.3,0.2-0.1c-3.2,0.2-6.3,0.5-9.5,0.8c-8.2,0.7-16.4,1.3-24.6,2
					c-1.1,0.1-2.4,0.1-3.5,0.3c-1.7,0.3-0.2-0.7,1,0.3c-0.3-0.3-1.5-0.2-1.9-0.3c-27-4.6-54.1-9-81.1-13.6
					c-26.5-4.5-53.1-9-79.5-14.2c-0.2,0-0.9-0.4-1.1-0.3c0.9-0.3,4.8,4,4.7,4.9c0.1-1.2-1.5-2.9-2.2-3.9c-3.1-4.2-6.5-8.2-9.8-12.2
					c-10.7-13.1-21.4-26-32.1-39.1c-10-12.2-20.1-24.3-29.8-36.8c-0.9-1.2,0.6,0.8-0.2-0.3c-0.4-0.5-0.7-0.9-1.1-1.4
					c-0.6-0.8-1.2-1.6-1.8-2.4c-1-1.4-1.8-3.9-1-1c0.8,3.1,0.3,0.9,0.3-0.8c0.1-2.1,0.2-4.2,0.3-6.3c1.3-32.5,2.8-64.9,4.1-97.4
					c0.1-3.3,0.3-6.6,0.4-10c0.1-9.7-14.9-9.7-15,0c-0.1,23.2-1.9,46.4-2.8,69.5c-0.5,12.9-1.1,25.8-1.6,38.6
					c-0.2,5.9-0.8,10.3,2.9,15.3c15.4,21.2,32.9,41,49.5,61.2c7.7,9.3,15.4,18.6,23,28c0.7,0.8,3.6,4.7,2,2.5c0.5,0.7,0.9,1.4,1.4,2
					c0,0-0.7-1.7-0.7-1.6c-0.1,0.8,1.5,2.8,1.9,3.3c1.1,1.1,2.1,1.5,3.5,2c0.6,0.2,1.2,0.3,1.9,0.5c7.6,2,15.5,3.1,23.2,4.5
					c13.4,2.4,26.8,4.7,40.1,7c27.1,4.6,54.2,9.2,81.3,13.7c5.7,1,11.4,2,17.2,2.9c3.3,0.5,6.6-0.1,10-0.3
					c7.2-0.6,14.5-1.2,21.7-1.7c14-1.1,27.9-3.3,41.8-5.2c49.6-7,99.1-13.9,148.7-20.9c1.1-0.2,2.3-0.3,3.4-0.5c-1.3,0-2.7,0-4,0
					c29.5,6.3,59,12.5,88.5,18.8c12.6,2.7,25.2,5.6,37.9,8.1c3.6,0.7,6.5-0.1,10-1c7.7-1.9,15.5-3.9,23.2-5.8
					c16.1-4,32.2-8,48.3-12.1c4.4-1.1,7.3-7.1,4.5-11c-6.9-9.6-13.8-19.1-20.7-28.7c-2.2,3.8-4.3,7.5-6.5,11.3
					c20.6-1.7,41.1-3.3,61.7-5c11-0.9,21.9-1.8,32.9-2.7c2.8-0.2,5.4-0.3,8-1.4c2.1-0.9,4.2-2,6.3-3c22.3-10.7,44.7-21.4,67-32.2
					c2-1,4.4-1.8,6.3-3c2.4-1.6,3.2-3.7,4.4-6.1c4.7-9.2,9.3-18.4,14-27.5c10.7-21,21.4-42.1,32.1-63.1c1.7-3.4,1.1-8.4-2.7-10.3
					c-17-8.5-34-17-51-25.5c1.1,1.5,2.3,3,3.4,4.5c-1-6.4-2-12.8-3-19.2c-1.1-7.2-1.5-14.9-3.4-21.9c-1.1-4.3-3.9-8.7-5.8-12.7
					c-4.1-8.7-8.1-17.4-12.1-26.1c-1.8-3.9-3.6-7.7-5.3-11.6c-0.6-1.3-1.2-2.6-1.7-3.9c-0.7-1.6,0.6,0.9,0,0
					c-0.1-0.2-0.4-0.8-0.4-1.1c0-0.1-0.1-0.3-0.1-0.3c0.2,0.7,1.1,4.2,0-0.2c-0.1-0.5-0.6-1.5-0.8-1.9c-0.5-0.8-1.2-1.6-1.9-2.3
					c-1.3-1.5-2.9-2.8-4.3-4.2c-12.5-11.9-25.5-23.4-38.3-35c-10.5-9.5-21-18.9-31.5-28.3c0.7,1.8,1.5,3.5,2.2,5.3
					c0.5-13.7,1-27.3,1.5-41c0.1-3.6-0.7-6.2-3.7-8.5c-1.4-1.1-3-2-4.4-3.1c-7-4.9-14.1-9.7-21.1-14.6c-5.1-3.5-10.1-7.6-15.5-10.7
					c-4-2.3-9.9-0.9-14.2-0.6c-8.8,0.6-17.6,1.1-26.5,1.7c-5.1,0.3-12.4-0.5-17.3,1.5c-2.3,1-4.6,3.3-6.6,4.9
					c-3.7,2.9-7.3,5.9-11,8.8c-5.6,4.5-11.1,8.9-16.7,13.4c3-0.4,6.1-0.8,9.1-1.2c-6.1-4-12.3-8-18.4-12
					c-5.1-3.3-12.8-10.7-19.4-9.5c-7,1.4-14,3.4-21,5.1c-8,1.9-16.2,3.5-24.1,5.8c-3.2,0.9-5.8,3.4-8.4,5.4
					c-3.4,2.6-6.8,5.3-10.2,7.9c3-0.4,6.1-0.8,9.1-1.2c-41.5-18.6-83-37.2-124.5-55.8c-5.1-2.3-10.5-5.6-15.9-7.1
					c-4.6-1.3-11.1,0.7-15.7,1.3c-26.3,2.9-52.5,5.8-78.8,8.8c-24.1,2.7-48.3,5.4-72.4,8c-4.7,0.5-9.4,0.4-13.1,3.6
					c-5,4.2-9.9,8.7-14.8,13c-37.8,33.2-75.6,66.4-113.3,99.7c-2.8,2.5-4.6,4.5-6.3,7.9c-4.7,9.6-9.4,19.1-14.1,28.7
					c-11.5,23.4-23,46.7-34.5,70.1c-0.8,1.5-1.5,3.1-2.3,4.6C57.5,504.8,70.4,512.5,74.7,503.8z"/>
			</g>
		</g>
		<g>
			<g>
				<path class="st1" d="M78.5,506.7c27.8-11.5,55.6-22.9,83.4-34.4c3.9-1.6,7.8-3.2,11.7-4.8c-1.3,0-2.7,0-4,0
					c14.8,3.8,29.5,7.7,44.3,11.5c-1.7-1.7-3.5-3.5-5.2-5.2c8.5,24.9,16.9,49.8,25.4,74.7c0.7,2,1.3,4.1,2.1,6.1
					c0.1,0.4,0.2,1.1,0.5,1.4c0.7,0.9-0.1-1.4-0.1-1.3c-1,1.1-0.4,7-0.5,8.4c-0.3,4.2-0.5,8.4-0.9,12.6c-0.1,1-0.2,2-0.3,3
					c-0.2,1.3-0.1,0.7-0.1,0.8c-0.1,0.4-0.4,1.1-0.3,1.6c0.4,3.1,7.7-6.4,2.8-3.2c-1.6,1-2.7,2.4-3.9,3.9c-4.5,5.6-8.7,11.4-13,17.2
					c-8.6,11.7-17,23.4-25.4,35.2c-1.9,2.6-1.1,6.9,1.2,9.1c28.9,27.4,57.7,54.9,86.6,82.3c5.6,5.3,11.2,10.7,16.9,16
					c0.8,0.8,1.6,1.6,2.5,2.3c4,3.2,8.5,1.7,13,1c11.8-1.9,23.7-3.7,35.5-5.6c3-0.5,7-0.4,9.7-2c2.7-1.6,3.5-4.6,4.7-7.2
					c9.2-20.5,18.4-41,27.6-61.5c1.9-4.2,3.2-7.9,4.1-12.5c2.2-11,4.4-22,6.6-32.9c2.3-11.4,4.6-22.8,6.8-34.2
					c0.5-2.4,1-4.8,1.4-7.2c0.7-4.2-1.5-7.6-3.3-11.3c-2.7-5.6-5.4-11.3-8.1-16.9c-1.7-3.5-3-7.5-5.1-10.7c-2.4-3.7-5.8-3.7-9.7-4.2
					c-5.5-0.8-10.9-1.6-16.4-2.5c-11.1-1.7-22.2-3.5-33.3-5.7c-0.5-0.1-1.1-0.4-1.6-0.4c-1,0,1.7,0.7,1.3,0.5
					c-0.8-0.3,2.8,0.5-1.9-0.8c-1.8-0.5-3.6-0.2-5.4,0.3c-3.7,1-7.3,2.8-10.8,4.4c-21,9.1-42,18.9-62.1,30c-3,1.7-6.1,3.3-7.2,6.9
					c-3,9.2,11.5,13.2,14.5,4c-0.4,1.2-2.1,3.7-2.9,4c0.1,0,0.3-0.2,0.4-0.3c0.5-0.2,0.9-0.6,1.4-0.8c1.4-0.8,2.9-1.6,4.4-2.4
					c4.6-2.4,9.2-4.7,13.8-7c11.6-5.8,23.3-11.4,35-16.8c2.3-1.1,4.6-2.1,6.9-3.1c1.1-0.5,2.3-1,3.4-1.5c0.4-0.2,0.8-0.4,1.3-0.5
					c0.4-0.2,0.8-0.3,1.2-0.5c-0.8,0.3-0.9,0.4-0.4,0.2c1.4-0.6,2.8-1.1,4.2-1.6c0.4-0.1,1.1-0.2,1.4-0.5c0.1-0.1,0.3,0,0.4-0.1
					c-1.1,0.9-5.4-0.9-5.2-0.7c2.9,1.8,7.1,2.1,10.3,2.7c6,1.1,12,2.1,18,3c10.1,1.6,20.2,3.1,30.4,4.6c-1.5-1.1-3-2.3-4.5-3.4
					c5.3,11,10.5,22,15.8,33c-0.3-1.9-0.5-3.9-0.8-5.8c-4.5,22.7-9.1,45.4-13.6,68.2c-0.6,3.2-2.6,8.1-2.3,11.4
					c0.2,1.7,1.2-2.3,0.4-0.7c-0.6,1.3-1.2,2.7-1.8,4c-5.4,12-10.8,24-16.1,36c-4.6,10.2-9.1,20.3-13.7,30.5c1.5-1.1,3-2.3,4.5-3.4
					c-16.4,2.6-32.7,5.1-49.1,7.7c2.4,0.6,4.9,1.3,7.3,1.9c-30.9-29.4-61.8-58.8-92.7-88.2c-4.4-4.2-8.8-8.4-13.2-12.5
					c0.4,3,0.8,6.1,1.2,9.1c6.5-9.1,13-18.2,19.6-27.2c4.5-6.2,9-12.4,13.6-18.5c0.4-0.6,0.9-1.1,1.3-1.7c1.3-1.8-0.9,1.1,0.4-0.5
					c0.6-0.8,1.2-1.6,1.9-2.4c0.3-0.4,1.1-1,1.3-1.4c0.4-1,7.7-0.9-2.8,1.5c1.3-0.3,2.6-1.2,3.5-2.1c4.5-4.6,3.7-14.6,4.1-20.6
					c0.4-5.1,1.8-11.4,0.6-16.5c-2.3-9.7-6.5-19.3-9.7-28.7c-4.9-14.3-9.7-28.6-14.6-42.9c-1.2-3.5-2.3-7.1-3.6-10.7
					c-2-5.4-6.5-5.9-11.4-7.2c-12.6-3.3-25.1-7.2-37.8-9.9c-3.5-0.7-5.3,0.3-8.4,1.5c-4.9,2-9.8,4-14.7,6.1
					c-25.5,10.5-51,21-76.5,31.6c-3.7,1.5-6.4,5-5.2,9.2C70.3,505,74.7,508.3,78.5,506.7L78.5,506.7z"/>
			</g>
		</g>
		<g>
			<path class="st1" d="M306.6,740.6c0,0-16.1-64.6-16.1-66.3c0-1.7,26.4-64.6,27.8-64.6c1.5,0,49.4-31.6,49.4-31.6l31.1,28.3
				l-10.2,66.3l-30.7,66.3L306.6,740.6z"/>
			<g>
				<path class="st1" d="M313.9,738.6c-3.2-12.8-6.4-25.6-9.5-38.4c-1.8-7.5-3.7-15-5.4-22.5c-0.3-1.3-0.4-4.1-1.1-5.1
					c0.7,1-0.8,4.6,0.3,2.7c0.4-0.8,0.6-1.7,0.9-2.5c5.8-15,12.1-29.7,18.6-44.4c1.4-3.1,2.7-6.2,4.2-9.3c0.7-1.4,2.5-3.7,2.6-5.2
					c-0.1,0.8-7.3,4.7-2,2.1c0.6-0.3,1.3-0.7,1.9-1c2.6-1.5,5.1-3.1,7.6-4.7c13.3-8.4,26.4-17.1,39.6-25.7c-3-0.4-6.1-0.8-9.1-1.2
					c10.4,9.4,20.8,18.9,31.1,28.3c-0.6-2.4-1.3-4.9-1.9-7.3c-3.1,20-6.2,40.1-9.3,60.1c-0.2,1.5-0.6,3.1-0.7,4.7
					c-0.2,2.3-0.7,0.7,0.5-0.2c-1.5,1.1-2.6,5.7-3.4,7.4c-5.2,11.2-10.4,22.5-15.6,33.7c-3.9,8.4-7.8,16.7-11.6,25.1
					c2.2-1.2,4.3-2.5,6.5-3.7c-17.1,0.6-34.2,1.1-51.2,1.7c-9.6,0.3-9.7,15.3,0,15c17.1-0.6,34.2-1.1,51.2-1.7
					c2.5-0.1,5.4-1.3,6.5-3.7c10.2-22.1,20.9-44,30.7-66.3c1.7-3.8,1.8-8.3,2.4-12.4c1.3-8.4,2.6-16.7,3.9-25.1
					c1.2-7.8,2.4-15.5,3.6-23.3c0.7-4.8,2.7-10.9-0.9-14.8c-4.9-5.2-10.8-9.8-16.2-14.7c-4.9-4.5-9.9-9-14.8-13.5
					c-2.4-2.1-6.2-3-9.1-1.2c-11.8,7.8-23.6,15.5-35.6,23.2c-3.1,2-6.3,4-9.4,5.9c-1,0.6-1.9,1.1-2.9,1.7c-1.6,1-0.5,0.7,0.3,0
					c-1.7,1.5-3.4,1.7-4.7,3.7c-0.4,0.6-0.7,1.3-1.1,1.9c-1.3,2.6-2.5,5.2-3.7,7.9c-7.3,16.2-14.2,32.6-20.8,49.1
					c-1.7,4.3-3.4,7.7-2.5,12.4c1.2,6.2,2.9,12.2,4.3,18.3c3.8,15.6,7.7,31.3,11.6,46.9C301.7,751.9,316.2,748,313.9,738.6z"/>
			</g>
		</g>
		<g>
			<path class="st1" d="M69.8,500l98.8-39.8l54.2,12.7l66.9,82.8l-43,30.3l-39.8,49.4c0,0,109.9,102,109.9,103.6
				c0,1.6-9.6,3.2-9.6,3.2l-165.7-30.3l-78.1-92.4L69.8,500z"/>
			<g>
				<path class="st1" d="M71.8,507.2c28.8-11.6,57.6-23.2,86.3-34.8c4.1-1.7,8.3-3.3,12.4-5c-1.3,0-2.7,0-4,0
					c10.9,2.6,21.9,5.2,32.8,7.7c5.9,1.4,11.9,2.8,17.8,4.2c0.8,0.2,2.6,1,3.5,0.8c-2.5,0.5-4.4-3.5-2.2-0.6
					c6.1,8.3,13,16.1,19.5,24.2c9.7,12,19.4,24.1,29.2,36.1c5.7,7.1,11.4,14.2,17.2,21.2c0.5-3.9,1-7.9,1.5-11.8
					c-13.7,9.6-27.4,19.3-41.1,28.9c-3.8,2.7-6.3,6-9.2,9.7c-6.6,8.1-13.1,16.3-19.7,24.4c-4.8,5.9-9.6,11.9-14.4,17.8
					c-2.5,3.1-3.2,7.6,0,10.6c32,29.7,64,59.3,95.5,89.4c3.4,3.2,6.7,6.4,10,9.6c1,1,2,2,3,3c2.3,2.3-0.1,0.1-0.5-1.7
					c0-1.3,0-2.7,0-4c2.2-5.8,3.7-3.3,1.9-3.4c-0.7,0-2.1,0.6-2.8,0.7c-1.1,0.3-2.2,0.5-3.4,0.7c1.3,0,2.7,0,4,0
					c-41.2-7.5-82.3-15-123.5-22.6c-10.2-1.9-20.4-3.7-30.6-5.6c-2.9-0.5-5.8-1.1-8.7-1.6c-0.6-0.1-1.5-0.5-2.2-0.4
					c-2.3,0.2,2.3,0.6,2.5,1.8c-0.2-1.1-2.7-3.2-3.4-4c-2.8-3.3-5.5-6.5-8.3-9.8c-8.2-9.8-16.5-19.5-24.7-29.3
					c-13.9-16.4-27.7-32.8-41.6-49.2c0.7,1.8,1.5,3.5,2.2,5.3c1.9-34.8,3.7-69.6,5.6-104.4c0.3-5,0.5-10.1,0.8-15.1
					c0.5-9.6-14.5-9.6-15,0c-1,18.3-1.9,36.5-2.9,54.8c-1.1,21.1-3.2,42.5-3.4,63.7c0,5.2,4.4,9.1,7.6,12.9
					c7.2,8.5,14.3,17,21.5,25.4c15.7,18.6,31.4,37.1,47.1,55.7c2.7,3.2,4.6,6,9,7c6.8,1.5,13.6,2.5,20.5,3.7
					c25.6,4.7,51.2,9.4,76.8,14c20.7,3.8,41.3,7.6,62,11.3c6.9,1.3,15.6,1.6,21.1-3.6c7.2-6.8-1.6-13.6-6.3-18.1
					c-33-31.9-66.8-62.9-100.5-94.2c-0.9-0.8-1.8-1.7-2.7-2.5c0,3.5,0,7.1,0,10.6c10.5-13.1,21.1-26.2,31.6-39.2
					c2.2-2.8,4.5-5.6,6.7-8.4c0.1-0.2,1.4-1.4,1.3-1.7c0,0.1-2.3,1.6-0.5,0.4c7.2-4.9,14.3-10,21.4-15c6.9-4.9,13.8-9.7,20.7-14.6
					c4.2-3,4.7-7.8,1.5-11.8c-11.2-13.8-22.3-27.6-33.5-41.4c-7.6-9.4-15.2-18.8-22.8-28.2c-3.4-4.3-6.7-9.5-10.7-13.2
					c-2.4-2.2-6-2.6-9.1-3.3c-5.5-1.3-11-2.6-16.5-3.9c-10.3-2.4-20.5-5.1-30.8-7.3c-5.4-1.1-9.8,1.7-14.7,3.7
					c-10.3,4.2-20.6,8.3-30.9,12.5c-19.4,7.8-38.8,15.6-58.1,23.4c-3.7,1.5-6.4,5-5.2,9.2C63.6,505.6,68,508.8,71.8,507.2z"/>
			</g>
		</g>
		<g>
			<path class="st1" d="M103.3,426.7c0,0-22.3-18.5-20.7-18.5c1.6,0,6.4-25.6,6.4-25.6l38.2-35.6l25.5,19.9c0,0-25.5,25.6-27.1,25.6
				C124,392.6,106.5,422.4,103.3,426.7z"/>
			<g>
				<path class="st1" d="M108.6,421.4c-3.3-2.7-6.6-5.5-9.9-8.3c-2.3-2-4.6-4-6.9-6c-0.9-0.8-1.7-1.6-2.5-2.3
					c-1.2-1.1-1-1.6-0.3-0.2c0.3,1.3,0.7,2.5,1,3.8c0,0,0-0.1,0-0.1c-1.8,2.4-3.7,4.8-5.5,7.2c8.1-3.2,8.8-16.2,10.3-23.7
					c0.4-1.9,0.9-3.8,1.1-5.7c0.3-3.2,1.2,0.7-1.6,1.7c1.6-0.6,3.5-3.3,4.7-4.4c11.1-10.4,22.3-20.7,33.4-31.1c-3.5,0-7.1,0-10.6,0
					c8.5,6.6,17,13.3,25.5,19.9c0-3.5,0-7.1,0-10.6c-4.2,4.2-8.4,8.3-12.6,12.5c-3,2.9-6.1,5.9-9.2,8.7c-1.1,1-2.2,1.9-3.3,2.9
					c-1.2,1.1,0.6-0.2,1.1-0.4c-6.7,3.4-10.5,11.7-14.4,18c-4.1,6.5-7.8,13.4-12.3,19.6c-2.4,3.3-0.5,8.3,2.7,10.3
					c3.8,2.3,7.9,0.6,10.3-2.7c4.5-6.2,8.3-13.1,12.3-19.6c2.2-3.5,4.4-7,6.7-10.5c0.4-0.6,0.8-1.1,1.2-1.7c0.5-0.7,0.5-0.6-0.2,0.2
					c0.1-0.1,0.2-0.2,0.3-0.3c0.1-0.2,0.3-0.3,0.4-0.5c-3,1.4-4,1.9-2.8,1.6c0.7-0.2,1.5-0.6,2.1-1c5.8-3.4,10.8-9.5,15.6-14.1
					c4.2-4.1,8.4-8.3,12.6-12.5c2.6-2.6,3.2-8.1,0-10.6c-8.5-6.6-17-13.3-25.5-19.9c-3.3-2.6-7.3-3-10.6,0
					c-10.8,10-21.6,20.1-32.4,30.1c-3.8,3.6-7.2,6-8.3,11.4c-0.8,4.3-1.7,8.7-2.7,13c-0.5,2-0.9,4-1.5,5.9c-0.2,0.7-0.8,1.8-0.8,2.4
					c0-1.3,3.4-3.3,4.3-3.7c-3.2,1.2-5.5,3.7-5.5,7.2c-0.1,5.8,7.5,10.6,11.3,13.9c3.9,3.3,7.8,6.6,11.7,9.9
					C105.4,438.1,116,427.6,108.6,421.4z"/>
			</g>
		</g>
		<g>
			<g>
				<path class="st1" d="M159.5,352.5c0.9,31.9,1.8,63.8,2.7,95.7c0.1,4.6,0.3,9.1,0.4,13.7c0.1,2.5,1.3,5.3,3.7,6.5
					c17.3,8.5,34.7,16.9,52,25.4c3.8,1.9,10.3,0.7,11-4.5c3.5-23.7,7-47.4,10.5-71.1c5.6-37.8,11.1-75.5,16.7-113.3
					c1.3-8.6,2.5-17.3,3.8-25.9c0.6-3.7-0.6-7.3-4.3-8.8c-3.1-1.3-7.9-0.4-9.4,3.1c-9,21.3-18.1,42.6-27.1,63.8
					c-14.3,33.7-28.6,67.5-42.9,101.2c-3.3,7.8-6.6,15.5-9.9,23.3c-1.6,3.8-1.1,8,2.7,10.3c3.1,1.9,8.7,1,10.3-2.7
					c9-21.3,18.1-42.6,27.1-63.8c14.3-33.7,28.6-67.5,42.9-101.2c3.3-7.8,6.6-15.5,9.9-23.3c-4.6-1.9-9.1-3.9-13.7-5.8
					c-3.5,23.7-7,47.4-10.5,71.1c-5.6,37.8-11.1,75.5-16.7,113.3c-1.3,8.6-2.5,17.3-3.8,25.9c3.7-1.5,7.3-3,11-4.5
					c-17.3-8.5-34.7-16.9-52-25.4c1.2,2.2,2.5,4.3,3.7,6.5c-0.9-31.9-1.8-63.8-2.7-95.7c-0.1-4.6-0.3-9.1-0.4-13.7
					C174.2,342.9,159.2,342.8,159.5,352.5L159.5,352.5z"/>
			</g>
		</g>
		<g>
			<g>
				<path class="st1" d="M419.6,254.1c-18.4,19.4-36.8,38.9-55.2,58.3c-33.4,35.3-66.7,70.6-99.9,106c-12,12.7-23.9,25.5-35.8,38.3
					c-4.6,5-20.5,18-9.5,24.3c3.4,1.9,7.9,2.7,11.6,3.7c7.4,2.1,14.7,4.1,22.1,6.1c22.1,5.9,44.1,11.7,66.2,17.5
					c36.6,9.6,73.2,19.1,109.9,28.5c0.7,0.2,1.4,0.4,2.1,0.5c4.6,1.2,9.6-2.3,9.5-7.2c-0.9-30.6-1.9-61.1-2.8-91.7
					c-1.5-48.6-3-97.3-4.4-145.9c-0.3-11.1-0.7-22.1-1-33.2c-0.3-9.6-15.3-9.7-15,0c0.9,30.6,1.9,61.1,2.8,91.7
					c1.5,48.6,3,97.3,4.4,145.9c0.3,11.1,0.7,22.1,1,33.2c3.2-2.4,6.3-4.8,9.5-7.2c-23.3-6-46.6-12.1-70-18.1
					c-37.6-9.8-75.2-19.5-112.8-29.7c-6.4-1.7-12.9-3.5-19.3-5.3c-1.9-0.6-3.9-1.1-5.8-1.7c-0.5-0.2-1.1-0.4-1.7-0.5
					c-0.2,0-0.3-0.2-0.5-0.2c2.1,0.2,4.3,3.5,4.9,5c0,1.3,0,2.7,0,4c-0.2,0.9-1.9,3.1-1.4,2.6c0.4-0.4,0.8-0.9,1.2-1.4
					c1.4-1.5,2.8-3.1,4.2-4.6c5-5.4,10-10.8,15-16.2c16-17.2,32.2-34.3,48.3-51.5c36-38.3,72.2-76.5,108.3-114.8
					c8.2-8.7,16.4-17.3,24.6-26C436.8,257.7,426.2,247.1,419.6,254.1z"/>
			</g>
		</g>
		<g>
			<g>
				<path class="st1" d="M559,324.8c9.7,0,9.7-15,0-15C549.3,309.8,549.3,324.8,559,324.8z"/>
			</g>
		</g>
		<g>
			<polygon class="st1" points="565.3,321.6 581.3,308.8 625.9,297.7 657.7,316.8 633.8,353.4 582.8,372.5 557.4,355 			"/>
			<g>
				<path class="st1" d="M570.6,326.9c4.8-3.8,9.7-7.6,14.4-11.5c3.9-3.2-4.3,1-0.5,0.4c2.5-0.4,5-1.2,7.4-1.8c12-3,24-6,35.9-9
					c-1.9-0.3-3.9-0.5-5.8-0.8c10.6,6.4,21.2,12.7,31.9,19.1c-0.9-3.4-1.8-6.8-2.7-10.3c-8,12.2-15.9,24.4-23.9,36.6
					c1.5-1.1,3-2.3,4.5-3.4c-17,6.4-34,12.7-51,19.1c1.9,0.3,3.9,0.5,5.8,0.8c-8.5-5.8-17-11.7-25.5-17.5c1.1,2.8,2.3,5.6,3.4,8.5
					c2.7-11.2,5.3-22.3,8-33.5c2.2-9.4-12.2-13.4-14.5-4c-2.7,11.2-5.3,22.3-8,33.5c-0.8,3.5,0.6,6.5,3.4,8.5
					c7.8,5.4,15.7,10.8,23.5,16.2c3,2.1,5.9,2.7,9.5,1.5c4.2-1.4,8.3-3.1,12.5-4.7c10.9-4.1,21.7-8.1,32.6-12.2
					c3.3-1.2,6.6-2.1,8.8-5.1c2.2-3,4.1-6.3,6.1-9.4c5.9-9,11.8-18.1,17.7-27.1c2.2-3.4,0.7-8.3-2.7-10.3
					c-6.3-3.8-12.6-7.6-18.9-11.3c-5.3-3.2-12.7-9.8-19.2-8.4c-7.5,1.5-14.9,3.7-22.4,5.6c-7.1,1.8-14.6,3.1-21.6,5.4
					c-3.5,1.1-6.7,4.6-9.5,6.8c-3.3,2.6-6.6,5.3-9.9,7.9c-3.2,2.6-2.6,7.9,0,10.6C563.1,330,567.5,329.4,570.6,326.9z"/>
			</g>
		</g>
		<g>
			<path class="st1" d="M659.3,315.2c0,0,27.1-22.3,28.7-22.3c1.6,0,47.8-3.2,47.8-3.2L782,320l-3.2,44.6L659.3,315.2z"/>
			<g>
				<path class="st1" d="M664.6,320.5c5.5-4.5,11-9,16.5-13.3c3.2-2.5,5.7-4.2,8.8-6.7c2.5-2-0.6,0.3-1.6-0.1
					c0.7,0.3,2.1-0.1,2.8-0.2c14.9-0.9,29.8-2,44.6-3c-1.3-0.3-2.5-0.7-3.8-1c15.4,10.1,30.8,20.2,46.2,30.3
					c-1.2-2.2-2.5-4.3-3.7-6.5c-1.1,14.9-2.1,29.7-3.2,44.6c3.2-2.4,6.3-4.8,9.5-7.2c-34.8-14.4-69.7-28.8-104.5-43.2
					c-5-2.1-10-4.1-15-6.2c-3.8-1.6-8.2,1.7-9.2,5.2c-1.2,4.3,1.5,7.7,5.2,9.2c34.8,14.4,69.7,28.8,104.5,43.2c5,2.1,10,4.1,15,6.2
					c4.9,2,9.2-2.9,9.5-7.2c1.1-14.9,2.1-29.7,3.2-44.6c0.2-2.7-1.6-5.1-3.7-6.5c-7.6-5-15.1-9.9-22.7-14.9
					c-7.7-5-15.3-11.3-23.5-15.4c-3.5-1.7-7.7-0.8-11.4-0.5c-6.4,0.4-12.8,0.9-19.2,1.3c-5.8,0.4-11.5,0.8-17.3,1.1
					c-3.5,0.2-6.5,0.4-9.6,2.5c-9.9,6.7-19,14.7-28.1,22.3c-3.2,2.6-2.6,7.9,0,10.6C657.1,323.6,661.5,323.1,664.6,320.5z"/>
			</g>
		</g>
		<g>
			<path class="st1" d="M425.1,259.4l6.4,266.1L445.8,653l82.8,60.5l129.1,28.7c0,0,74.9-17.5,74.9-20.7s-22.3-28.7-22.3-28.7
				s-65.3-92.4-66.9-92.4c-1.6,0-89.2-49.4-89.2-49.4L425.1,259.4z"/>
			<g>
				<path class="st1" d="M417.6,259.4c1,40.7,1.9,81.4,2.9,122.1c1.1,47.2,2.3,94.3,3.4,141.5c0.3,13.8,2.9,27.9,4.5,41.6
					c3,27,6.1,54.1,9.1,81.1c0.3,2.4,0.5,4.7,0.8,7.1c0.5,4.2,2.9,6,5.9,8.2c9.1,6.6,18.2,13.3,27.3,19.9
					c12.1,8.8,24.2,17.7,36.3,26.5c4.3,3.1,8.6,6.3,12.9,9.4c1.9,1.4,3.7,3.1,6,3.8c6,2,12.7,2.8,18.9,4.2
					c13.7,3.1,27.5,6.1,41.2,9.2c22.6,5,45.2,10.6,68,15.1c6.7,1.3,14.9-2.1,21.3-3.7c14.5-3.5,29-7.1,43.4-11.2
					c9-2.6,26.3-5.9,18.5-19c-3.7-6.2-8.8-11.8-13.5-17.4c-2-2.5-4.1-4.9-6.2-7.3c-0.7-0.8-1.3-1.6-2.1-2.4
					c-1.2-1.3,0.2,0.1,0.5,0.7c-1-2-2.8-3.9-4.1-5.7c-3.2-4.5-6.4-9-9.5-13.5c-8.7-12.2-17.4-24.5-26.2-36.6
					c-7.4-10.3-14.7-20.6-22.3-30.7c-1.8-2.4-3.5-5.1-5.7-7.2c-1.3-1.2-1.9-1.4-3.5-2.1c-1-0.4,2.1,1.3,1,0.4
					c-1-0.8-2.5-1.3-3.6-1.8c-23.9-12.7-47.4-26.2-71-39.4c-3.8-2.1-7.6-4.3-11.5-6.4c-0.6-0.3-1.6-1.2-2.3-1.3
					c0.6,0.1,2.3,3.6,2.4,2.3c0.1-0.9-1.2-2.8-1.6-3.6c-1.1-2.5-2.2-5-3.3-7.4c-20.6-46.5-41.1-92.9-61.7-139.4
					c-19.7-44.4-39.3-88.8-59-133.2c-1.1-2.5-2.2-5-3.3-7.6c-1.7-3.7-7-4.5-10.3-2.7c-3.8,2.2-4.3,6.6-2.7,10.3
					c14.7,33.2,29.4,66.3,44,99.5c23.1,52.3,46.3,104.5,69.4,156.8c3.5,8,7,15.9,10.6,23.9c1.6,3.6,2.9,7.6,4.9,11
					c2.6,4.6,10.5,7.4,14.8,9.8c12.3,6.9,24.6,13.8,36.9,20.7c11.4,6.4,22.8,12.7,34.3,18.9c2.2,1.2,5.3,3.4,7.9,3.8
					c-3.6-0.6-3.8-3-1.9-0.4c0.4,0.5,0.8,1,1.2,1.5c-1.2-1.5,0.3,0.4,0.9,1.3c16.7,22.1,32.5,44.8,48.5,67.3
					c4.5,6.4,9,12.9,13.6,19.2c6.6,8.9,15,16.6,20.9,25.8c0.3,0.4,0.5,1.1,0.9,1.4c0.1,0.1,0.1,0.3,0.2,0.4c-1.3-2.5-0.8-5,1.4-7.7
					c2.4-3.3,0.9,0.2,0.1-0.3c-0.2-0.2,0,0,0.8-0.3c-0.4,0.2-0.8,0.3-1.3,0.5c-1.3,0.4-2.5,0.9-3.8,1.3c-6,1.9-12.2,3.6-18.3,5.2
					c-13.7,3.6-27.5,7-41.2,10.3c-2.6,0.6-5.1,1.2-7.7,1.8c1.3,0,2.7,0,4,0c-33.2-7.4-66.5-14.8-99.7-22.2
					c-7.6-1.7-15.3-3.4-22.9-5.1c-1.8-0.4-3.7-1-5.5-1.2c-2.3-0.3,1.5,1.5,0.2,0.1c-4-4.1-9.9-7.2-14.5-10.6
					c-8.6-6.3-17.3-12.6-25.9-18.9c-13.9-10.2-27.9-20.4-41.8-30.6c1.2,2.2,2.5,4.3,3.7,6.5c-3.1-27.6-6.2-55.2-9.3-82.8
					c-1.9-17.1-4.8-34.3-5.2-51.6c-0.6-27-1.3-54-1.9-81c-0.9-37.4-1.8-74.7-2.7-112.1c-0.5-21.6-0.5-43.4-1.6-65c0-0.3,0-0.7,0-1
					C432.4,249.8,417.4,249.8,417.6,259.4z"/>
			</g>
		</g>
		<g>
			<g>
				<path class="st1" d="M556.5,318c-5,19-10,38-15,57c-8,30.3-16,60.6-24,90.9c-1.9,7-3.7,14-5.6,21c-2.5,9.3,12,13.3,14.5,4
					c5-19,10-38,15-57c8-30.3,16-60.6,24-90.9c1.9-7,3.7-14,5.6-21C573.4,312.6,559,308.6,556.5,318L556.5,318z"/>
			</g>
		</g>
		<g>
			<g>
				<path class="st1" d="M773.9,359.2c-15.5,27-31,54.1-46.5,81.1c-24.5,42.8-49,85.5-73.5,128.3c-5.6,9.9-11.3,19.7-16.9,29.6
					c-4.8,8.4,8.1,16,13,7.6c15.5-27,31-54.1,46.5-81.1c24.5-42.8,49-85.5,73.5-128.3c5.6-9.9,11.3-19.7,16.9-29.6
					C791.7,358.4,778.7,350.8,773.9,359.2L773.9,359.2z"/>
			</g>
		</g>
		<g>
			<g>
				<path class="st1" d="M650.3,607.3c13.2-12.9,26.3-25.8,39.5-38.7c9.1-8.9,18.1-17.8,27.2-26.7c3.1-3,6.2-6,9.2-9.1
					c1-1,3.2-2.4,3.7-3.7c-0.9,2.1-5,2.3-2.1,1.5c1.3-0.4,2.6-0.9,3.9-1.3c4.3-1.5,8.5-2.9,12.8-4.4c12.4-4.3,24.8-8.5,37.2-12.8
					c10.6-3.6,21.1-7.3,31.7-10.9c1.8-0.6,3.8-1.2,5.6-1.9c3.7-1.6,4.8-3.9,6.5-7.1c11-20,22-40.1,33-60.1c4.7-8.5-8.3-16-13-7.6
					c-11.7,21.2-23.4,42.5-35.1,63.7c1.5-1.1,3-2.3,4.5-3.4c-28.8,9.9-57.6,19.8-86.3,29.8c-3.2,1.1-7,2-9.6,4.3
					c-3.3,2.9-6.3,6.2-9.4,9.2c-13.3,13.1-26.7,26.2-40,39.2c-10,9.8-20,19.6-30,29.4C632.8,603.4,643.4,614,650.3,607.3
					L650.3,607.3z"/>
			</g>
		</g>
		<g>
			<path class="st1" d="M726.2,520.7l90.8-30.3l30.3,62.1l-25.5,39.8l-63.7,23.9c0,0-35-31.9-35-36.6
				C723.1,574.9,727.8,519.1,726.2,520.7z"/>
			<g>
				<path class="st1" d="M728.2,527.9c26.5-8.8,52.9-17.6,79.4-26.5c3.8-1.3,7.6-2.5,11.5-3.8c-2.8-1.1-5.6-2.3-8.5-3.4
					c10.1,20.7,20.2,41.4,30.3,62.1c0-2.5,0-5,0-7.6c-8.5,13.3-17,26.6-25.5,39.8c1.5-1.1,3-2.3,4.5-3.4
					c-21.2,8-42.5,15.9-63.7,23.9c2.4,0.6,4.9,1.3,7.3,1.9c-4.8-4.4-9.6-8.8-14.3-13.4c-3.7-3.6-7.4-7.2-11.1-11
					c-1.5-1.6-3.1-3.2-4.5-4.9c-0.7-0.8-1.3-1.5-2-2.3c-1.2-1.4,0.3,0.4-0.9-1.1c-1.9-2.5,0.3,0.1-0.2,1.1c0.4-0.7,0.1-2.5,0.2-3.2
					c0.2-3.8,0.5-7.7,0.8-11.5c0.7-10.3,1.5-20.6,2.1-30.9c0.2-3.8,0.6-7.6,0.4-11.4c-0.3-5.8-5.2-12-11.6-8.2c-8.3,5-0.7,18,7.6,13
					c0,0,0,0,0.1,0c-1.9,0.3-3.9,0.5-5.8,0.8c0,0,0,0,0,0c-1.5-1.1-3-2.3-4.5-3.4c-0.8-1.2-0.7-4.3-0.8-1.5c0,1.4,0,2.8-0.1,4.2
					c-0.2,4.2-0.4,8.4-0.7,12.6c-0.6,9.9-1.4,19.8-2.1,29.7c-0.4,5.8-1.7,11.6,1.7,16.7c5.1,7.6,12.3,14,18.8,20.3
					c5.3,5.1,10.6,10.2,16.1,15.1c1.9,1.7,4.8,2.9,7.3,1.9c11.9-4.4,23.7-8.9,35.6-13.3c7.4-2.8,14.8-5.5,22.2-8.3
					c4.1-1.5,8.3-2.5,10.8-6.3c8.3-12.1,15.8-24.8,23.8-37.1c1.8-2.8,3-5.3,1.8-8.8c-0.5-1.3-1.2-2.5-1.8-3.8
					c-3.1-6.3-6.1-12.6-9.2-18.9c-6.6-13.5-13.1-26.9-19.7-40.4c-1.4-2.8-5.5-4.4-8.5-3.4c-26.5,8.8-52.9,17.6-79.4,26.5
					c-3.8,1.3-7.6,2.5-11.5,3.8C715.1,516.5,719,531,728.2,527.9z"/>
			</g>
		</g>
		<g>
			<g>
				<path class="st1" d="M817.1,499.5c20.7-1.6,41.4-3.2,62.1-4.8c9.6-0.7,9.6-15.7,0-15c-20.7,1.6-41.4,3.2-62.1,4.8
					C807.5,485.3,807.4,500.3,817.1,499.5L817.1,499.5z"/>
			</g>
		</g>
		<g>
			<polygon class="st1" points="936.5,554.2 907.9,563.7 920.6,579.7 			"/>
			<g>
				<path class="st1" d="M934.6,546.9c-9.6,3.2-19.1,6.4-28.7,9.6c-5.7,1.9-6.9,8.1-3.3,12.5c4.2,5.3,8.5,10.6,12.7,15.9
					c3.1,3.9,9.5,2.2,11.8-1.5c5.3-8.5,10.6-17,15.9-25.5c5.1-8.2-7.8-15.7-13-7.6c-5.3,8.5-10.6,17-15.9,25.5
					c3.9-0.5,7.9-1,11.8-1.5c-4.2-5.3-8.5-10.6-12.7-15.9c-1.1,4.2-2.2,8.4-3.3,12.5c9.6-3.2,19.1-6.4,28.7-9.6
					C947.7,558.4,943.7,543.9,934.6,546.9z"/>
			</g>
		</g>
	</g>
</g>
</svg>
